# xmcd
#
# Track frame offsets: 
#        150
#        15592
#        29487
#        49923
#        59343
#        77209
#        96171
#        116134
#        131469
#        152403
#        170989
#        191109
#        208939
#
# Disc length: 3022 seconds
#
# Revision: 0
# Processed by: cddbd v1.5.2PL0 Copyright (c) Steve Scherf et al.
# Submitted via: ExactAudioCopy v0.95b4
#
DISCID=ba0bcc0d
DTITLE=coal men - Nowhere's Too Far
DYEAR=2004
DGENRE=Country
TTITLE0=Northwest Kid
TTITLE1=King Of Letting Go
TTITLE2=Gave It Back
TTITLE3=Highway Side
TTITLE4=Want Me To
TTITLE5=Nowhere's Too Far
TTITLE6=Jamestown
TTITLE7=Endless Road
TTITLE8=Lonely
TTITLE9=Agree
TTITLE10=Kansas City Misery
TTITLE11=Into The Dark
TTITLE12=Can't Thank You Enough
EXTD=
EXTT0=
EXTT1=
EXTT2=
EXTT3=
EXTT4=
EXTT5=
EXTT6=
EXTT7=
EXTT8=
EXTT9=
EXTT10=
EXTT11=
EXTT12=
PLAYORDER=
